# xmcd CD database file
#
# Track frame offsets:
#	150
#	15728
#	28167
#	39847
#	53657
#	66697
#	81323
#	95048
#	111383
#	124770
#	134439
#	147288
#	158142
#	178185
#	192878
#	208302
#
# Disc length: 2923 seconds
#
# Revision: 0
# Processed by: cddbd v1.4PL0 Copyright (c) Steve Scherf et al.
# Submitted via: CDex 1.50Beta7
#
DISCID=f20b6910
DTITLE=Gerry Mulligan - Swing house
DYEAR=1900
DGENRE=Jazz
TTITLE0=It may be wrong
TTITLE1=So what
TTITLE2=Westwood walk
TTITLE3=Flash
TTITLE4=A ballad
TTITLE5=Ontet
TTITLE6=Half Nelson
TTITLE7=Walkin' shoes
TTITLE8=Simbah
TTITLE9=Speak low
TTITLE10=Taking a chance on love
TTITLE11=Varsity drag
TTITLE12=Lady Bird
TTITLE13=Love me or leave me
TTITLE14=Swing house
TTITLE15=Rocker
EXTD=
EXTT0=
EXTT1=
EXTT2=
EXTT3=
EXTT4=
EXTT5=
EXTT6=
EXTT7=
EXTT8=
EXTT9=
EXTT10=
EXTT11=
EXTT12=
EXTT13=
EXTT14=
EXTT15=
PLAYORDER=
